<svg id="svg2" xmlns="http://www.w3.org/2000/svg" viewBox="0 0 497.46 238.35"><defs><style>.cls-1{fill:#f7ab10;}.cls-2{fill:#28468d;}.cls-3,.cls-4,.cls-5,.cls-7{fill:#fff696;}.cls-4,.cls-5,.cls-6,.cls-7,.cls-8{stroke:#000;}.cls-4{stroke-width:1.27px;}.cls-5,.cls-6{stroke-width:1.28px;}.cls-6,.cls-8{fill:none;}.cls-7,.cls-8{stroke-width:0.64px;}.cls-9{fill:#ff7f2a;}</style></defs><title>Dutch_train</title><g id="g3558"><path id="path3369" d="M98.26,230.13c0,8.65-4.41,15.66-9.84,15.66s-9.83-7-9.83-15.66,4.4-15.65,9.83-15.65,9.84,7,9.84,15.65" transform="translate(-30.25 -7.44)"/><path id="path330" d="M177.36,224.33c0,10.52-5.36,19-12,19s-12-8.52-12-19,5.35-19,12-19,12,8.52,12,19" transform="translate(-30.25 -7.44)"/><path id="path198" d="M505,189.18c0,4.68-1,8.48-2.33,8.48s-2.34-3.8-2.34-8.48,1-8.47,2.34-8.47,2.33,3.79,2.33,8.47" transform="translate(-30.25 -7.44)"/><path id="path194" d="M487.6,190c0,5.37-1.05,9.72-2.34,9.72s-2.34-4.35-2.34-9.72,1.05-9.71,2.34-9.71,2.34,4.35,2.34,9.71" transform="translate(-30.25 -7.44)"/><path id="path190" d="M475,192.47c0,5.15-1.05,9.33-2.34,9.33s-2.34-4.18-2.34-9.33,1.05-9.33,2.34-9.33,2.34,4.18,2.34,9.33" transform="translate(-30.25 -7.44)"/><path id="path178" d="M223.78,218c0,8.29-2.56,15-5.71,15s-5.71-6.72-5.71-15,2.56-15,5.71-15,5.71,6.72,5.71,15" transform="translate(-30.25 -7.44)"/><path id="path182" d="M372,206c0,6.26-2.12,11.34-4.73,11.34s-4.72-5.08-4.72-11.34,2.12-11.34,4.72-11.34S372,199.7,372,206" transform="translate(-30.25 -7.44)"/><path id="path186" d="M407.46,201.21c0,5.36-1.43,9.71-3.2,9.71s-3.2-4.35-3.2-9.71,1.43-9.72,3.2-9.72,3.2,4.35,3.2,9.72" transform="translate(-30.25 -7.44)"/><path id="path224" d="M95.67,162.08l-.34,0-63.1,18.71s.35,39,2.57,42.47,1.56,13.64,25.65,13l75.16-8.56,203.31-18.53L475.15,196,522,190.15l5.38-6.35.25-6.06c-144.08-2.07-288-9.59-431.94-15.66Z" transform="translate(-30.25 -7.44)"/><path id="path228" class="cls-1" d="M32.49,69.73c-2.42,74.74-2.24,73.44-2.24,79.56,0,10.64,1.93,32.31,1.93,32.31s7.71-5.95,51.32-7l43.61-1h0c22.82-.51,51,15,51,15L527.71,177.9l-2.05-36.69L289.89,83.36,159.06,53.44,32.78,65.1Z" transform="translate(-30.25 -7.44)"/><path id="path230" class="cls-2" d="M524.62,164a.6.6,0,0,1-.66.65l-339-22.73c-3.19-.86-4.88-1-5.13-4.65L178.24,80c-.59-.45,1.22-6,7.09-4.78l338.06,68.16a1,1,0,0,1,.77.83Z" transform="translate(-30.25 -7.44)"/><path id="path232" d="M31.54,70.85V58.21s.55-5.49,8.24-8.78C50,45.05,53,45.58,53,45.58L83.16,17l-5.77-.87,2.48-3s28-7.14,56-5.49c6,1.41,11,2.58,15.27,3.59,20.22,4.85,29.21,7.4,39.1,15.09,0,0,37.89,32.39,55.47,39S483,122.47,483,122.47s2.62-2.41,10.31-2.41h11.64s3.8-.49,6.37,1.59,12.59,13.06,12.59,13.06a6.06,6.06,0,0,1,1.65,3.3c.15,3.29,0,3.29,0,3.29L392.91,111.49,182.56,68.1a89.24,89.24,0,0,0-25.26-3.84c-13.73,0-68.65-1.65-101.06,2.19-12.15,1.44-24.71,4.4-24.71,4.4" transform="translate(-30.25 -7.44)"/><path id="path234" class="cls-3" d="M152.73,36.41l-4.4-16.88,17.12,3c10.79,2.86,19.22,11.6,27.23,18.55Z" transform="translate(-30.25 -7.44)"/><path id="path238" class="cls-3" d="M129.56,17.23,86.88,19.78,67.79,37.9l68-5.49Z" transform="translate(-30.25 -7.44)"/><path id="path248" class="cls-4" d="M278,103.82l-18.51-3c-1.42-.23-2.55.54-2.5,1.71l.28,7.17,23.46,3.34-.27-6.85a2.86,2.86,0,0,0-2.46-2.41Z" transform="translate(-30.25 -7.44)"/><path id="path252" class="cls-5" d="M258.19,133a2.81,2.81,0,0,0,2.66,2.37L279.34,137a1.9,1.9,0,0,0,2.29-1.81l-.89-22.15-23.46-3.34.91,23.22Z" transform="translate(-30.25 -7.44)"/><path id="path256" class="cls-5" d="M305.91,108.28l-16.45-2.63c-1.26-.2-2.25.53-2.2,1.64l.27,6.75,20.84,3-.27-6.46a2.59,2.59,0,0,0-2.19-2.26Z" transform="translate(-30.25 -7.44)"/><path id="path260" class="cls-5" d="M288.41,135.88a2.55,2.55,0,0,0,2.36,2.22l16.43,1.53a1.73,1.73,0,0,0,2-1.73L308.37,117,287.53,114l.88,21.84Z" transform="translate(-30.25 -7.44)"/><path id="path262" class="cls-3" d="M333.44,140.26a1.58,1.58,0,0,1-1.82,1.64l.46,0a1.57,1.57,0,0,0,1.81-1.64l-.83-19.8-.46-.06.84,19.82Z" transform="translate(-30.25 -7.44)"/><path id="path264" class="cls-6" d="M333.44,140.26a1.58,1.58,0,0,1-1.82,1.64l.46,0a1.57,1.57,0,0,0,1.81-1.64l-.83-19.8-.46-.06.84,19.82Z" transform="translate(-30.25 -7.44)"/><path id="path266" class="cls-3" d="M330.82,112.27l-.46-.07a2.39,2.39,0,0,1,2,2.11l.25,6.13.46.07-.26-6.12a2.38,2.38,0,0,0-2-2.12" transform="translate(-30.25 -7.44)"/><path id="path268" class="cls-6" d="M330.82,112.27l-.46-.07a2.39,2.39,0,0,1,2,2.11l.25,6.13.46.07-.26-6.12a2.38,2.38,0,0,0-2-2.12Z" transform="translate(-30.25 -7.44)"/><path id="path270" class="cls-3" d="M315.29,138.5l-.86-20.64-.5-.07.86,20.66a2.31,2.31,0,0,0,2.12,2.08l.49.05a2.32,2.32,0,0,1-2.11-2.08" transform="translate(-30.25 -7.44)"/><path id="path272" class="cls-6" d="M315.29,138.5l-.86-20.64-.5-.07.86,20.66a2.31,2.31,0,0,0,2.12,2.08l.49.05a2.32,2.32,0,0,1-2.11-2.08Z" transform="translate(-30.25 -7.44)"/><path id="path274" class="cls-3" d="M314.16,111.47a1.56,1.56,0,0,1,2-1.56l-.49-.08a1.56,1.56,0,0,0-2,1.56l.27,6.39.49.07Z" transform="translate(-30.25 -7.44)"/><path id="path276" class="cls-6" d="M314.16,111.47a1.56,1.56,0,0,1,2-1.56l-.49-.08a1.56,1.56,0,0,0-2,1.56l.27,6.39.49.07Z" transform="translate(-30.25 -7.44)"/><path id="path280" class="cls-5" d="M333.44,140.26l-.84-19.82-18.17-2.58.85,20.64a2.33,2.33,0,0,0,2.12,2.08l14.22,1.32a1.58,1.58,0,0,0,1.82-1.64Z" transform="translate(-30.25 -7.44)"/><path id="path284" class="cls-5" d="M314.16,111.47l.26,6.38,18.18,2.58-.26-6.12a2.38,2.38,0,0,0-2-2.12l-14.24-2.28a1.56,1.56,0,0,0-2,1.56Z" transform="translate(-30.25 -7.44)"/><path id="path288" class="cls-5" d="M338.87,140.78a2.15,2.15,0,0,0,1.91,2L354,144a1.46,1.46,0,0,0,1.64-1.57l-.82-18.81L338,121.21l.83,19.57Z" transform="translate(-30.25 -7.44)"/><path id="path292" class="cls-5" d="M352.8,115.78l-13.26-2.12a1.43,1.43,0,0,0-1.75,1.5l.25,6,16.79,2.39-.25-5.82a2.22,2.22,0,0,0-1.78-2Z" transform="translate(-30.25 -7.44)"/><path id="path296" class="cls-5" d="M359.74,124.3l.8,18.59a2,2,0,0,0,1.73,1.86l12,1.11a1.36,1.36,0,0,0,1.48-1.49l-.79-17.92-15.19-2.15Z" transform="translate(-30.25 -7.44)"/><path id="path300" class="cls-5" d="M374.67,120.91a2,2,0,0,0-1.62-1.89l-12-1.92a1.33,1.33,0,0,0-1.59,1.44l.25,5.75,15.19,2.16-.25-5.54Z" transform="translate(-30.25 -7.44)"/><path id="path304" class="cls-5" d="M223.37,133.26c0,1.26-1.25,2.15-2.91,2l-8.75-.84c-1.72-.16-3.17-1.35-3.21-2.64L207,91.51c0-1.29,1.32-2.09,3.05-1.79l8.76,1.53c1.66.29,3,1.54,3.08,2.8l1.47,39.21Z" transform="translate(-30.25 -7.44)"/><path id="path306" class="cls-7" d="M237.51,135.21c0,1.23-1.19,2.1-2.76,1.95l-1.94-.18c-1.59-.15-2.93-1.29-3-2.53l-1.32-34.93c-.05-1.24,1.21-2,2.81-1.76l1.94.32a3.35,3.35,0,0,1,2.93,2.69Z" transform="translate(-30.25 -7.44)"/><path id="path308" class="cls-7" d="M249,136.35c0,1.2-1.14,2.06-2.64,1.91l-1.86-.17a3,3,0,0,1-2.85-2.47l-1.31-34.18c0-1.21,1.16-2,2.69-1.73l1.86.31a3.21,3.21,0,0,1,2.81,2.62l1.3,33.71Z" transform="translate(-30.25 -7.44)"/><path id="path314" class="cls-7" d="M388.29,150.16a1.31,1.31,0,0,1-1.4,1.46l-1-.1a1.83,1.83,0,0,1-1.55-1.75l-1.11-25a1.22,1.22,0,0,1,1.41-1.37l1,.17a2,2,0,0,1,1.54,1.84l1.11,24.79Z" transform="translate(-30.25 -7.44)"/><path id="path316" class="cls-7" d="M394.24,150.75a1.28,1.28,0,0,1-1.36,1.44l-1-.1a1.78,1.78,0,0,1-1.51-1.72l-1.1-24.65a1.19,1.19,0,0,1,1.37-1.35l1,.16a1.93,1.93,0,0,1,1.49,1.81l1.1,24.41Z" transform="translate(-30.25 -7.44)"/><path id="path318" class="cls-8" d="M237.7,86.56l-10.91-2.07c-1.72-.33-3.07.55-3,2l3.83,101.93h14L237.7,86.56Z" transform="translate(-30.25 -7.44)"/><path id="path320" class="cls-8" d="M246.94,88.31l-9.24-1.76,3.88,101.84h12.06l-3.75-97.1a3.54,3.54,0,0,0-2.95-3Z" transform="translate(-30.25 -7.44)"/><path id="path322" class="cls-8" d="M397.32,188.38,394.17,118A2.19,2.19,0,0,0,392.6,116l-4.82-.91L391,188.38Z" transform="translate(-30.25 -7.44)"/><path id="path324" class="cls-8" d="M387.79,115.05,382.16,114c-.88-.17-1.56.51-1.51,1.53l3.21,72.87h7.19l-3.26-73.33Z" transform="translate(-30.25 -7.44)"/><path id="path334" class="cls-5" d="M421,127.67l-20.13-3.51c-1.58-.28-2.83.16-2.79,1l.25,5,25.52,4-.25-4.69c0-.77-1.2-1.58-2.6-1.83Z" transform="translate(-30.25 -7.44)"/><path id="path338" class="cls-5" d="M399.1,146.41c0,.82,1.36,1.63,2.93,1.81l20.12,2.26c1.4.15,2.5-.34,2.46-1.11l-.8-15.18-25.52-4,.81,16.25Z" transform="translate(-30.25 -7.44)"/><path id="path342" class="cls-5" d="M450,132.75l-17-3c-1.32-.24-2.37.18-2.33.94l.25,4.59,21.49,3.39-.24-4.31c0-.71-1-1.45-2.21-1.65Z" transform="translate(-30.25 -7.44)"/><path id="path346" class="cls-5" d="M431.79,150.2c0,.75,1.14,1.48,2.46,1.63l16.94,1.9c1.19.13,2.11-.33,2.07-1l-.78-14L431,135.32l.79,14.88Z" transform="translate(-30.25 -7.44)"/><path id="path366" class="cls-5" d="M477.25,155.47l-.76-13-17.9-2.83.77,13.72c0,.69,1,1.36,2.11,1.48l14,1.58c1,.11,1.81-.33,1.77-1Z" transform="translate(-30.25 -7.44)"/><path id="path370" class="cls-5" d="M458.35,135.45l.24,4.23,17.9,2.83-.23-4c0-.66-.89-1.33-1.91-1.51l-14-2.45c-1.13-.2-2,.2-2,.9Z" transform="translate(-30.25 -7.44)"/><path id="path374" class="cls-5" d="M482.5,156.08c0,.65.85,1.26,1.82,1.37l12.52,1.4c.89.1,1.57-.31,1.53-.92l-.73-12.08-15.89-2.51.75,12.74Z" transform="translate(-30.25 -7.44)"/><path id="path378" class="cls-5" d="M495.75,140.73l-12.55-2.19c-1-.17-1.72.22-1.69.86l.23,3.94,15.9,2.51-.23-3.73c0-.61-.78-1.23-1.66-1.39Z" transform="translate(-30.25 -7.44)"/><path id="path382" class="cls-5" d="M502.2,146.57l.73,11.89c0,.6.75,1.16,1.59,1.26l10.92,1.22c.77.09,1.37-.31,1.33-.88l-.71-11.3-13.86-2.19Z" transform="translate(-30.25 -7.44)"/><path id="path386" class="cls-5" d="M515.84,145.26a1.7,1.7,0,0,0-1.47-1.28l-10.94-1.91c-.84-.15-1.5.22-1.46.82l.22,3.67,13.86,2.19-.22-3.49Z" transform="translate(-30.25 -7.44)"/><path id="path388" class="cls-8" d="M41.87,68.82S40,58.22,45,58.22s72.93-4.36,72.93-4.36l.58,121.53-76.63,3.27Z" transform="translate(-30.25 -7.44)"/><path id="path390" d="M144.28,165.22a3.31,3.31,0,0,1-3.15,2.72h-8a2.7,2.7,0,0,1-2.71-2.72v-13.9c0-2.14,1.52-3.95,3.39-3.95h10.05c1.88,0,3.09,1.81,2.74,3.95l-2.29,13.9Z" transform="translate(-30.25 -7.44)"/><path id="path392" d="M40,176.16c0,1.33-1.14,1.94-2.51,1.43l-1.8-.67a4.09,4.09,0,0,1-2.48-3.08l-2.09-18.55c-.25-2.26.88-4.19,2.63-4.19h2.57c2,0,3.68,2.2,3.68,4.76v20.3Z" transform="translate(-30.25 -7.44)"/><path id="path394" d="M146,87.87a3.39,3.39,0,0,1-3.39,3.39H132.53a3.39,3.39,0,0,1-3.39-3.39V80.31a3.39,3.39,0,0,1,3.39-3.39h10.06A3.39,3.39,0,0,1,146,80.31Z" transform="translate(-30.25 -7.44)"/><path id="path396" d="M38.63,93.82c0,1.87-.49,3.39-1.1,3.39H34.27c-.6,0-1.1-1.52-1.1-3.39V86.26c0-1.87.5-3.39,1.1-3.39h3.26c.61,0,1.1,1.52,1.1,3.39Z" transform="translate(-30.25 -7.44)"/><path id="path408" class="cls-9" d="M38.31,155.28a2.23,2.23,0,0,1-2.22,2.23h-.41a2.23,2.23,0,0,1,0-4.45h.41a2.23,2.23,0,0,1,2.22,2.22" transform="translate(-30.25 -7.44)"/><path id="path410" class="cls-9" d="M144.17,152.65a3.23,3.23,0,0,1-3.23,3.23H136.5a3.24,3.24,0,1,1,0-6.47h4.44a3.23,3.23,0,0,1,3.23,3.24" transform="translate(-30.25 -7.44)"/><path id="path180" d="M357,208.1c0,6.42-2.3,11.63-5.13,11.63s-5.12-5.21-5.12-11.63,2.29-11.64,5.12-11.64S357,201.67,357,208.1" transform="translate(-30.25 -7.44)"/><path id="path184" d="M397.57,204.11c0,5.24-1.84,9.48-4.11,9.48s-4.11-4.24-4.11-9.48,1.84-9.48,4.11-9.48,4.11,4.24,4.11,9.48" transform="translate(-30.25 -7.44)"/><path id="path188" d="M435.85,196.81c0,5.36-1.05,9.71-2.34,9.71s-2.34-4.35-2.34-9.71,1.05-9.72,2.34-9.72,2.34,4.35,2.34,9.72" transform="translate(-30.25 -7.44)"/><path id="path192" d="M478.71,200.9c-2.36-1.17-1.92-3.16-2.21-4.71.24-1.64-.17-3.63,2.1-4.94,2,.18,1.87,1.72,2.29,2.52.38,2.31.78,4.88-1.47,7a1.23,1.23,0,0,1-.71.14Z" transform="translate(-30.25 -7.44)"/><path id="path196" d="M494.09,194.27c0,2.6-1,4.71-2.34,4.71s-2.34-2.11-2.34-4.71,1-4.71,2.34-4.71,2.34,2.11,2.34,4.71" transform="translate(-30.25 -7.44)"/><path id="path200" d="M511.51,191.12c0,2.86-1.05,5.18-2.34,5.18s-2.33-2.32-2.33-5.18,1-5.18,2.33-5.18,2.34,2.32,2.34,5.18" transform="translate(-30.25 -7.44)"/><path id="path3152" d="M257.49,219c0,6.15-3.14,11.13-7,11.13s-7-5-7-11.13,3.13-11.14,7-11.14,7,5,7,11.14" transform="translate(-30.25 -7.44)"/></g></svg>