<svg id="图层_1" data-name="图层 1" xmlns="http://www.w3.org/2000/svg" xmlns:xlink="http://www.w3.org/1999/xlink" viewBox="0 0 682.21 202.21"><defs><style>.cls-1,.cls-10,.cls-12,.cls-14,.cls-16,.cls-18,.cls-2,.cls-21,.cls-25,.cls-5,.cls-6,.cls-7,.cls-8,.cls-9{fill:none;}.cls-2{stroke:#b4b4b4;}.cls-10,.cls-12,.cls-14,.cls-16,.cls-18,.cls-2,.cls-21,.cls-25,.cls-5,.cls-6,.cls-7,.cls-8,.cls-9{stroke-linejoin:round;}.cls-10,.cls-2,.cls-21,.cls-25,.cls-6,.cls-7,.cls-8,.cls-9{stroke-width:1.07px;}.cls-3{clip-path:url(#clip-path);}.cls-4{fill:#ebebeb;}.cls-25,.cls-5,.cls-6{stroke:#fff;}.cls-5{stroke-width:0.53px;}.cls-14,.cls-7{stroke:#f8766d;}.cls-18,.cls-8{stroke:#7cae00;}.cls-16,.cls-9{stroke:#00bfc4;}.cls-10,.cls-12{stroke:#c77cff;}.cls-11{fill:#c77cff;}.cls-12,.cls-14,.cls-16,.cls-18,.cls-25{stroke-linecap:round;}.cls-12,.cls-14,.cls-16,.cls-18{stroke-width:0.71px;}.cls-13{fill:#f8766d;}.cls-15{fill:#00bfc4;}.cls-17{fill:#7cae00;}.cls-19,.cls-20,.cls-26{font-size:9px;}.cls-19,.cls-20{fill:#4d4d4d;}.cls-19{font-family:Helvetica, Helvetica;}.cls-20,.cls-22,.cls-26{font-family:TimesNewRomanPSMT, Times New Roman;}.cls-21{stroke:#333;}.cls-22{font-size:11px;}.cls-23{fill:#fff;}.cls-24{fill:#f2f2f2;}.cls-27{letter-spacing:-0.06em;}</style><clipPath id="clip-path" transform="translate(-32.31 -89.89)"><rect class="cls-1" x="41.06" y="89.96" width="562.03" height="154.3"/></clipPath></defs><title>Lei(2011)</title><line class="cls-2" x1="498.79" y1="154.37" x2="498.79" y2="0.07"/><g class="cls-3"><rect class="cls-4" x="22.69" y="0.07" width="548.1" height="154.3"/><line class="cls-5" x1="8.75" y1="132.03" x2="570.78" y2="132.03"/><line class="cls-5" x1="8.75" y1="108.8" x2="570.78" y2="108.8"/><line class="cls-5" x1="8.75" y1="85.58" x2="570.78" y2="85.58"/><line class="cls-5" x1="8.75" y1="62.36" x2="570.78" y2="62.36"/><line class="cls-5" x1="8.75" y1="39.13" x2="570.78" y2="39.13"/><line class="cls-5" x1="8.75" y1="15.91" x2="570.78" y2="15.91"/><line class="cls-5" x1="22.69" y1="154.37" x2="22.69" y2="0.07"/><line class="cls-5" x1="45.91" y1="154.37" x2="45.91" y2="0.07"/><line class="cls-5" x1="69.14" y1="154.37" x2="69.14" y2="0.07"/><line class="cls-5" x1="92.36" y1="154.37" x2="92.36" y2="0.07"/><line class="cls-5" x1="115.59" y1="154.37" x2="115.59" y2="0.07"/><line class="cls-5" x1="138.81" y1="154.37" x2="138.81" y2="0.07"/><line class="cls-5" x1="162.04" y1="154.37" x2="162.04" y2="0.07"/><line class="cls-5" x1="185.26" y1="154.37" x2="185.26" y2="0.07"/><line class="cls-5" x1="208.48" y1="154.37" x2="208.48" y2="0.07"/><line class="cls-5" x1="231.71" y1="154.37" x2="231.71" y2="0.07"/><line class="cls-5" x1="254.93" y1="154.37" x2="254.93" y2="0.07"/><line class="cls-5" x1="278.16" y1="154.37" x2="278.16" y2="0.07"/><line class="cls-5" x1="301.38" y1="154.37" x2="301.38" y2="0.07"/><line class="cls-5" x1="324.61" y1="154.37" x2="324.61" y2="0.07"/><line class="cls-5" x1="347.83" y1="154.37" x2="347.83" y2="0.07"/><line class="cls-5" x1="371.05" y1="154.37" x2="371.05" y2="0.07"/><line class="cls-5" x1="394.28" y1="154.37" x2="394.28" y2="0.07"/><line class="cls-5" x1="417.5" y1="154.37" x2="417.5" y2="0.07"/><line class="cls-5" x1="440.73" y1="154.37" x2="440.73" y2="0.07"/><line class="cls-5" x1="463.95" y1="154.37" x2="463.95" y2="0.07"/><line class="cls-5" x1="487.18" y1="154.37" x2="487.18" y2="0.07"/><line class="cls-5" x1="510.4" y1="154.37" x2="510.4" y2="0.07"/><line class="cls-5" x1="533.62" y1="154.37" x2="533.62" y2="0.07"/><line class="cls-5" x1="556.85" y1="154.37" x2="556.85" y2="0.07"/><line class="cls-5" x1="568.46" y1="154.37" x2="568.46" y2="0.07"/><line class="cls-6" x1="8.75" y1="143.64" x2="570.78" y2="143.64"/><line class="cls-6" x1="8.75" y1="120.42" x2="570.78" y2="120.42"/><line class="cls-6" x1="8.75" y1="97.19" x2="570.78" y2="97.19"/><line class="cls-6" x1="8.75" y1="73.97" x2="570.78" y2="73.97"/><line class="cls-6" x1="8.75" y1="50.74" x2="570.78" y2="50.74"/><line class="cls-6" x1="8.75" y1="27.52" x2="570.78" y2="27.52"/><line class="cls-6" x1="8.75" y1="4.3" x2="570.78" y2="4.3"/><line class="cls-6" x1="11.08" y1="154.37" x2="11.08" y2="0.07"/><line class="cls-6" x1="34.3" y1="154.37" x2="34.3" y2="0.07"/><line class="cls-6" x1="57.53" y1="154.37" x2="57.53" y2="0.07"/><line class="cls-6" x1="80.75" y1="154.37" x2="80.75" y2="0.07"/><line class="cls-6" x1="103.97" y1="154.37" x2="103.97" y2="0.07"/><line class="cls-6" x1="127.2" y1="154.37" x2="127.2" y2="0.07"/><line class="cls-6" x1="150.42" y1="154.37" x2="150.42" y2="0.07"/><line class="cls-6" x1="173.65" y1="154.37" x2="173.65" y2="0.07"/><line class="cls-6" x1="196.87" y1="154.37" x2="196.87" y2="0.07"/><line class="cls-6" x1="220.1" y1="154.37" x2="220.1" y2="0.07"/><line class="cls-6" x1="243.32" y1="154.37" x2="243.32" y2="0.07"/><line class="cls-6" x1="266.54" y1="154.37" x2="266.54" y2="0.07"/><line class="cls-6" x1="289.77" y1="154.37" x2="289.77" y2="0.07"/><line class="cls-6" x1="312.99" y1="154.37" x2="312.99" y2="0.07"/><line class="cls-6" x1="336.22" y1="154.37" x2="336.22" y2="0.07"/><line class="cls-6" x1="359.44" y1="154.37" x2="359.44" y2="0.07"/><line class="cls-6" x1="382.67" y1="154.37" x2="382.67" y2="0.07"/><line class="cls-6" x1="405.89" y1="154.37" x2="405.89" y2="0.07"/><line class="cls-6" x1="429.11" y1="154.37" x2="429.11" y2="0.07"/><line class="cls-6" x1="452.34" y1="154.37" x2="452.34" y2="0.07"/><line class="cls-6" x1="475.56" y1="154.37" x2="475.56" y2="0.07"/><line class="cls-6" x1="498.79" y1="154.37" x2="498.79" y2="0.07"/><line class="cls-6" x1="522.01" y1="154.37" x2="522.01" y2="0.07"/><line class="cls-6" x1="545.24" y1="154.37" x2="545.24" y2="0.07"/><polyline class="cls-7" points="34.3 20.09 57.53 35.88 80.75 40.05 103.97 43.3 127.2 40.98 150.43 38.66 173.66 34.48 196.88 32.63 220.1 18.68 243.32 92.08 266.55 66.06 289.77 19.61 313 29.84 336.23 44.23 359.44 43.77 382.68 26.59 405.89 27.52 429.12 18.23 452.35 44.23 475.56 40.05 498.8 38.66 522.01 40.05 545.25 39.13"/><polyline class="cls-8" points="34.3 41.91 57.53 38.2 80.75 26.13 103.97 61.88 127.2 64.67 150.43 34.02 173.66 67 196.88 61.42 220.1 49.34 243.32 89.75 266.55 108.8 289.77 147.35 313 91.14 336.23 74.89 359.44 66.53 382.68 52.59 405.89 65.14 429.12 69.31 452.35 44.23 475.56 68.39 498.8 72.56 522.01 56.77 545.25 57.24"/><polyline class="cls-9" points="34.3 20.09 57.53 31.7 80.75 51.66 103.97 21.48 127.2 22.41 150.43 52.13 173.66 30.3 196.88 34.95 220.1 33.55 243.32 52.13 266.55 63.74 289.77 78.14 313 49.8 336.23 45.63 359.44 41.45 382.68 61.42 405.89 50.27 429.12 47.48 452.35 31.23 475.56 33.09 498.8 33.09 522.01 43.77 545.25 49.34"/><polyline class="cls-10" points="34.3 27.05 57.53 25.2 80.75 20.09 103.97 20.09 127.2 22.86 150.43 21.48 173.66 21.95 196.88 22.86 220.1 24.27 243.32 9.39 266.55 8.94 289.77 7.08 313 19.16 336.23 19.16 359.44 18.23 382.68 21.95 405.89 21.95 429.12 21.02 452.35 22.86 475.56 21.02 498.8 20.09 522.01 20.09 545.25 19.61"/><path class="cls-11" d="M64.66,116.94a2,2,0,1,1,2,2,2,2,0,0,1-2-2" transform="translate(-32.31 -89.89)"/><path class="cls-12" d="M64.66,116.94a2,2,0,1,1,2,2,2,2,0,0,1-2-2" transform="translate(-32.31 -89.89)"/><path class="cls-11" d="M87.88,115.09a2,2,0,1,1,2,2,2,2,0,0,1-2-2" transform="translate(-32.31 -89.89)"/><path class="cls-12" d="M87.88,115.09a2,2,0,1,1,2,2,2,2,0,0,1-2-2" transform="translate(-32.31 -89.89)"/><path class="cls-11" d="M111.11,110a2,2,0,1,1,2,2,2,2,0,0,1-2-2" transform="translate(-32.31 -89.89)"/><path class="cls-12" d="M111.11,110a2,2,0,1,1,2,2,2,2,0,0,1-2-2" transform="translate(-32.31 -89.89)"/><path class="cls-11" d="M134.33,110a2,2,0,1,1,1.95,2,2,2,0,0,1-1.95-2" transform="translate(-32.31 -89.89)"/><path class="cls-12" d="M134.33,110a2,2,0,1,1,1.95,2,2,2,0,0,1-1.95-2" transform="translate(-32.31 -89.89)"/><path class="cls-11" d="M157.55,112.76a2,2,0,1,1,2,2,2,2,0,0,1-2-2" transform="translate(-32.31 -89.89)"/><path class="cls-12" d="M157.55,112.76a2,2,0,1,1,2,2,2,2,0,0,1-2-2" transform="translate(-32.31 -89.89)"/><path class="cls-11" d="M180.78,111.37a2,2,0,1,1,1.95,2,2,2,0,0,1-1.95-2" transform="translate(-32.31 -89.89)"/><path class="cls-12" d="M180.78,111.37a2,2,0,1,1,1.95,2,2,2,0,0,1-1.95-2" transform="translate(-32.31 -89.89)"/><path class="cls-11" d="M204,111.84a2,2,0,1,1,2,2,2,2,0,0,1-2-2" transform="translate(-32.31 -89.89)"/><path class="cls-12" d="M204,111.84a2,2,0,1,1,2,2,2,2,0,0,1-2-2" transform="translate(-32.31 -89.89)"/><path class="cls-11" d="M227.23,112.76a2,2,0,1,1,2,2,2,2,0,0,1-2-2" transform="translate(-32.31 -89.89)"/><path class="cls-12" d="M227.23,112.76a2,2,0,1,1,2,2,2,2,0,0,1-2-2" transform="translate(-32.31 -89.89)"/><path class="cls-11" d="M250.45,114.16a2,2,0,1,1,2,2,2,2,0,0,1-2-2" transform="translate(-32.31 -89.89)"/><path class="cls-12" d="M250.45,114.16a2,2,0,1,1,2,2,2,2,0,0,1-2-2" transform="translate(-32.31 -89.89)"/><path class="cls-11" d="M273.68,99.29a2,2,0,1,1,1.95,2,2,2,0,0,1-1.95-2" transform="translate(-32.31 -89.89)"/><path class="cls-12" d="M273.68,99.29a2,2,0,1,1,1.95,2,2,2,0,0,1-1.95-2" transform="translate(-32.31 -89.89)"/><path class="cls-11" d="M296.9,98.83a2,2,0,1,1,2,2,2,2,0,0,1-2-2" transform="translate(-32.31 -89.89)"/><path class="cls-12" d="M296.9,98.83a2,2,0,1,1,2,2,2,2,0,0,1-2-2" transform="translate(-32.31 -89.89)"/><path class="cls-11" d="M320.12,97a2,2,0,1,1,2,2,2,2,0,0,1-2-2" transform="translate(-32.31 -89.89)"/><path class="cls-12" d="M320.12,97a2,2,0,1,1,2,2,2,2,0,0,1-2-2" transform="translate(-32.31 -89.89)"/><path class="cls-11" d="M343.35,109.05a2,2,0,1,1,1.95,2,2,2,0,0,1-1.95-2" transform="translate(-32.31 -89.89)"/><path class="cls-12" d="M343.35,109.05a2,2,0,1,1,1.95,2,2,2,0,0,1-1.95-2" transform="translate(-32.31 -89.89)"/><path class="cls-11" d="M366.57,109.05a2,2,0,1,1,2,2,2,2,0,0,1-2-2" transform="translate(-32.31 -89.89)"/><path class="cls-12" d="M366.57,109.05a2,2,0,1,1,2,2,2,2,0,0,1-2-2" transform="translate(-32.31 -89.89)"/><path class="cls-11" d="M389.8,108.12a2,2,0,1,1,1.95,1.95,2,2,0,0,1-1.95-1.95" transform="translate(-32.31 -89.89)"/><path class="cls-12" d="M389.8,108.12a2,2,0,1,1,1.95,1.95,2,2,0,0,1-1.95-1.95" transform="translate(-32.31 -89.89)"/><path class="cls-11" d="M413,111.84a2,2,0,1,1,2,2,2,2,0,0,1-2-2" transform="translate(-32.31 -89.89)"/><path class="cls-12" d="M413,111.84a2,2,0,1,1,2,2,2,2,0,0,1-2-2" transform="translate(-32.31 -89.89)"/><path class="cls-11" d="M436.25,111.84a2,2,0,1,1,1.95,2,2,2,0,0,1-1.95-2" transform="translate(-32.31 -89.89)"/><path class="cls-12" d="M436.25,111.84a2,2,0,1,1,1.95,2,2,2,0,0,1-1.95-2" transform="translate(-32.31 -89.89)"/><path class="cls-11" d="M459.47,110.91a2,2,0,1,1,1.95,2,2,2,0,0,1-1.95-2" transform="translate(-32.31 -89.89)"/><path class="cls-12" d="M459.47,110.91a2,2,0,1,1,1.95,2,2,2,0,0,1-1.95-2" transform="translate(-32.31 -89.89)"/><path class="cls-11" d="M482.69,112.76a2,2,0,1,1,2,2,2,2,0,0,1-2-2" transform="translate(-32.31 -89.89)"/><path class="cls-12" d="M482.69,112.76a2,2,0,1,1,2,2,2,2,0,0,1-2-2" transform="translate(-32.31 -89.89)"/><path class="cls-11" d="M505.92,110.91a2,2,0,1,1,1.95,2,2,2,0,0,1-1.95-2" transform="translate(-32.31 -89.89)"/><path class="cls-12" d="M505.92,110.91a2,2,0,1,1,1.95,2,2,2,0,0,1-1.95-2" transform="translate(-32.31 -89.89)"/><path class="cls-11" d="M529.14,110a2,2,0,1,1,2,2,2,2,0,0,1-2-2" transform="translate(-32.31 -89.89)"/><path class="cls-12" d="M529.14,110a2,2,0,1,1,2,2,2,2,0,0,1-2-2" transform="translate(-32.31 -89.89)"/><path class="cls-11" d="M552.37,110a2,2,0,1,1,2,2,2,2,0,0,1-2-2" transform="translate(-32.31 -89.89)"/><path class="cls-12" d="M552.37,110a2,2,0,1,1,2,2,2,2,0,0,1-2-2" transform="translate(-32.31 -89.89)"/><path class="cls-11" d="M575.59,109.51a2,2,0,1,1,2,2,2,2,0,0,1-2-2" transform="translate(-32.31 -89.89)"/><path class="cls-12" d="M575.59,109.51a2,2,0,1,1,2,2,2,2,0,0,1-2-2" transform="translate(-32.31 -89.89)"/><path class="cls-13" d="M64.66,110a2,2,0,1,1,2,2,2,2,0,0,1-2-2" transform="translate(-32.31 -89.89)"/><path class="cls-14" d="M64.66,110a2,2,0,1,1,2,2,2,2,0,0,1-2-2" transform="translate(-32.31 -89.89)"/><path class="cls-13" d="M87.88,125.77a2,2,0,1,1,2,2,2,2,0,0,1-2-2" transform="translate(-32.31 -89.89)"/><path class="cls-14" d="M87.88,125.77a2,2,0,1,1,2,2,2,2,0,0,1-2-2" transform="translate(-32.31 -89.89)"/><path class="cls-13" d="M111.11,130a2,2,0,1,1,2,2,2,2,0,0,1-2-2" transform="translate(-32.31 -89.89)"/><path class="cls-14" d="M111.11,130a2,2,0,1,1,2,2,2,2,0,0,1-2-2" transform="translate(-32.31 -89.89)"/><path class="cls-13" d="M134.33,133.2a2,2,0,1,1,1.95,2,2,2,0,0,1-1.95-2" transform="translate(-32.31 -89.89)"/><path class="cls-14" d="M134.33,133.2a2,2,0,1,1,1.95,2,2,2,0,0,1-1.95-2" transform="translate(-32.31 -89.89)"/><path class="cls-13" d="M157.55,130.88a2,2,0,1,1,2,2,2,2,0,0,1-2-2" transform="translate(-32.31 -89.89)"/><path class="cls-14" d="M157.55,130.88a2,2,0,1,1,2,2,2,2,0,0,1-2-2" transform="translate(-32.31 -89.89)"/><path class="cls-13" d="M180.78,128.56a2,2,0,1,1,1.95,1.95,2,2,0,0,1-1.95-1.95" transform="translate(-32.31 -89.89)"/><path class="cls-14" d="M180.78,128.56a2,2,0,1,1,1.95,1.95,2,2,0,0,1-1.95-1.95" transform="translate(-32.31 -89.89)"/><path class="cls-13" d="M204,124.38a2,2,0,1,1,2,2,2,2,0,0,1-2-2" transform="translate(-32.31 -89.89)"/><path class="cls-14" d="M204,124.38a2,2,0,1,1,2,2,2,2,0,0,1-2-2" transform="translate(-32.31 -89.89)"/><path class="cls-13" d="M227.23,122.52a2,2,0,1,1,2,2,2,2,0,0,1-2-2" transform="translate(-32.31 -89.89)"/><path class="cls-14" d="M227.23,122.52a2,2,0,1,1,2,2,2,2,0,0,1-2-2" transform="translate(-32.31 -89.89)"/><path class="cls-13" d="M250.45,108.58a2,2,0,1,1,2,2,2,2,0,0,1-2-2" transform="translate(-32.31 -89.89)"/><path class="cls-14" d="M250.45,108.58a2,2,0,1,1,2,2,2,2,0,0,1-2-2" transform="translate(-32.31 -89.89)"/><path class="cls-13" d="M273.68,182a2,2,0,1,1,1.95,2,2,2,0,0,1-1.95-2" transform="translate(-32.31 -89.89)"/><path class="cls-14" d="M273.68,182a2,2,0,1,1,1.95,2,2,2,0,0,1-1.95-2" transform="translate(-32.31 -89.89)"/><path class="cls-13" d="M296.9,156a2,2,0,1,1,2,2,2,2,0,0,1-2-2" transform="translate(-32.31 -89.89)"/><path class="cls-14" d="M296.9,156a2,2,0,1,1,2,2,2,2,0,0,1-2-2" transform="translate(-32.31 -89.89)"/><path class="cls-13" d="M320.12,109.51a2,2,0,1,1,2,2,2,2,0,0,1-2-2" transform="translate(-32.31 -89.89)"/><path class="cls-14" d="M320.12,109.51a2,2,0,1,1,2,2,2,2,0,0,1-2-2" transform="translate(-32.31 -89.89)"/><path class="cls-13" d="M343.35,119.73a2,2,0,1,1,1.95,2,2,2,0,0,1-1.95-2" transform="translate(-32.31 -89.89)"/><path class="cls-14" d="M343.35,119.73a2,2,0,1,1,1.95,2,2,2,0,0,1-1.95-2" transform="translate(-32.31 -89.89)"/><path class="cls-13" d="M366.57,134.13a2,2,0,1,1,2,2,2,2,0,0,1-2-2" transform="translate(-32.31 -89.89)"/><path class="cls-14" d="M366.57,134.13a2,2,0,1,1,2,2,2,2,0,0,1-2-2" transform="translate(-32.31 -89.89)"/><path class="cls-13" d="M389.8,133.67a2,2,0,1,1,1.95,2,2,2,0,0,1-1.95-2" transform="translate(-32.31 -89.89)"/><path class="cls-14" d="M389.8,133.67a2,2,0,1,1,1.95,2,2,2,0,0,1-1.95-2" transform="translate(-32.31 -89.89)"/><path class="cls-13" d="M413,116.48a2,2,0,1,1,2,2,2,2,0,0,1-2-2" transform="translate(-32.31 -89.89)"/><path class="cls-14" d="M413,116.48a2,2,0,1,1,2,2,2,2,0,0,1-2-2" transform="translate(-32.31 -89.89)"/><path class="cls-13" d="M436.25,117.41a2,2,0,1,1,1.95,2,2,2,0,0,1-1.95-2" transform="translate(-32.31 -89.89)"/><path class="cls-14" d="M436.25,117.41a2,2,0,1,1,1.95,2,2,2,0,0,1-1.95-2" transform="translate(-32.31 -89.89)"/><path class="cls-13" d="M459.47,108.12a2,2,0,1,1,1.95,1.95,2,2,0,0,1-1.95-1.95" transform="translate(-32.31 -89.89)"/><path class="cls-14" d="M459.47,108.12a2,2,0,1,1,1.95,1.95,2,2,0,0,1-1.95-1.95" transform="translate(-32.31 -89.89)"/><path class="cls-13" d="M482.69,134.13a2,2,0,1,1,2,2,2,2,0,0,1-2-2" transform="translate(-32.31 -89.89)"/><path class="cls-14" d="M482.69,134.13a2,2,0,1,1,2,2,2,2,0,0,1-2-2" transform="translate(-32.31 -89.89)"/><path class="cls-13" d="M505.92,130a2,2,0,1,1,1.95,2,2,2,0,0,1-1.95-2" transform="translate(-32.31 -89.89)"/><path class="cls-14" d="M505.92,130a2,2,0,1,1,1.95,2,2,2,0,0,1-1.95-2" transform="translate(-32.31 -89.89)"/><path class="cls-13" d="M529.14,128.56a2,2,0,1,1,2,1.95,2,2,0,0,1-2-1.95" transform="translate(-32.31 -89.89)"/><path class="cls-14" d="M529.14,128.56a2,2,0,1,1,2,1.95,2,2,0,0,1-2-1.95" transform="translate(-32.31 -89.89)"/><path class="cls-13" d="M552.37,130a2,2,0,1,1,2,2,2,2,0,0,1-2-2" transform="translate(-32.31 -89.89)"/><path class="cls-14" d="M552.37,130a2,2,0,1,1,2,2,2,2,0,0,1-2-2" transform="translate(-32.31 -89.89)"/><path class="cls-13" d="M575.59,129a2,2,0,1,1,2,2,2,2,0,0,1-2-2" transform="translate(-32.31 -89.89)"/><path class="cls-14" d="M575.59,129a2,2,0,1,1,2,2,2,2,0,0,1-2-2" transform="translate(-32.31 -89.89)"/><path class="cls-15" d="M64.66,110a2,2,0,1,1,2,2,2,2,0,0,1-2-2" transform="translate(-32.31 -89.89)"/><path class="cls-16" d="M64.66,110a2,2,0,1,1,2,2,2,2,0,0,1-2-2" transform="translate(-32.31 -89.89)"/><path class="cls-15" d="M87.88,121.59a2,2,0,1,1,2,2,2,2,0,0,1-2-2" transform="translate(-32.31 -89.89)"/><path class="cls-16" d="M87.88,121.59a2,2,0,1,1,2,2,2,2,0,0,1-2-2" transform="translate(-32.31 -89.89)"/><path class="cls-15" d="M111.11,141.56a2,2,0,1,1,2,2,2,2,0,0,1-2-2" transform="translate(-32.31 -89.89)"/><path class="cls-16" d="M111.11,141.56a2,2,0,1,1,2,2,2,2,0,0,1-2-2" transform="translate(-32.31 -89.89)"/><path class="cls-15" d="M134.33,111.37a2,2,0,1,1,1.95,2,2,2,0,0,1-1.95-2" transform="translate(-32.31 -89.89)"/><path class="cls-16" d="M134.33,111.37a2,2,0,1,1,1.95,2,2,2,0,0,1-1.95-2" transform="translate(-32.31 -89.89)"/><path class="cls-15" d="M157.55,112.3a2,2,0,1,1,2,2,2,2,0,0,1-2-2" transform="translate(-32.31 -89.89)"/><path class="cls-16" d="M157.55,112.3a2,2,0,1,1,2,2,2,2,0,0,1-2-2" transform="translate(-32.31 -89.89)"/><path class="cls-15" d="M180.78,142a2,2,0,1,1,1.95,1.95,2,2,0,0,1-1.95-1.95" transform="translate(-32.31 -89.89)"/><path class="cls-16" d="M180.78,142a2,2,0,1,1,1.95,1.95,2,2,0,0,1-1.95-1.95" transform="translate(-32.31 -89.89)"/><path class="cls-15" d="M204,120.2a2,2,0,1,1,2,2,2,2,0,0,1-2-2" transform="translate(-32.31 -89.89)"/><path class="cls-16" d="M204,120.2a2,2,0,1,1,2,2,2,2,0,0,1-2-2" transform="translate(-32.31 -89.89)"/><path class="cls-15" d="M227.23,124.84a2,2,0,1,1,2,2,2,2,0,0,1-2-2" transform="translate(-32.31 -89.89)"/><path class="cls-16" d="M227.23,124.84a2,2,0,1,1,2,2,2,2,0,0,1-2-2" transform="translate(-32.31 -89.89)"/><path class="cls-15" d="M250.45,123.45a2,2,0,1,1,2,2,2,2,0,0,1-2-2" transform="translate(-32.31 -89.89)"/><path class="cls-16" d="M250.45,123.45a2,2,0,1,1,2,2,2,2,0,0,1-2-2" transform="translate(-32.31 -89.89)"/><path class="cls-15" d="M273.68,142a2,2,0,1,1,1.95,1.95,2,2,0,0,1-1.95-1.95" transform="translate(-32.31 -89.89)"/><path class="cls-16" d="M273.68,142a2,2,0,1,1,1.95,1.95,2,2,0,0,1-1.95-1.95" transform="translate(-32.31 -89.89)"/><path class="cls-15" d="M296.9,153.64a2,2,0,1,1,2,2,2,2,0,0,1-2-2" transform="translate(-32.31 -89.89)"/><path class="cls-16" d="M296.9,153.64a2,2,0,1,1,2,2,2,2,0,0,1-2-2" transform="translate(-32.31 -89.89)"/><path class="cls-15" d="M320.12,168a2,2,0,1,1,2,2,2,2,0,0,1-2-2" transform="translate(-32.31 -89.89)"/><path class="cls-16" d="M320.12,168a2,2,0,1,1,2,2,2,2,0,0,1-2-2" transform="translate(-32.31 -89.89)"/><path class="cls-15" d="M343.35,139.7a2,2,0,1,1,1.95,2,2,2,0,0,1-1.95-2" transform="translate(-32.31 -89.89)"/><path class="cls-16" d="M343.35,139.7a2,2,0,1,1,1.95,2,2,2,0,0,1-1.95-2" transform="translate(-32.31 -89.89)"/><path class="cls-15" d="M366.57,135.52a2,2,0,1,1,2,2,2,2,0,0,1-2-2" transform="translate(-32.31 -89.89)"/><path class="cls-16" d="M366.57,135.52a2,2,0,1,1,2,2,2,2,0,0,1-2-2" transform="translate(-32.31 -89.89)"/><path class="cls-15" d="M389.8,131.34a2,2,0,1,1,1.95,2,2,2,0,0,1-1.95-2" transform="translate(-32.31 -89.89)"/><path class="cls-16" d="M389.8,131.34a2,2,0,1,1,1.95,2,2,2,0,0,1-1.95-2" transform="translate(-32.31 -89.89)"/><path class="cls-15" d="M413,151.32a2,2,0,1,1,2,2,2,2,0,0,1-2-2" transform="translate(-32.31 -89.89)"/><path class="cls-16" d="M413,151.32a2,2,0,1,1,2,2,2,2,0,0,1-2-2" transform="translate(-32.31 -89.89)"/><path class="cls-15" d="M436.25,140.17a2,2,0,1,1,1.95,2,2,2,0,0,1-1.95-2" transform="translate(-32.31 -89.89)"/><path class="cls-16" d="M436.25,140.17a2,2,0,1,1,1.95,2,2,2,0,0,1-1.95-2" transform="translate(-32.31 -89.89)"/><path class="cls-15" d="M459.47,137.38a2,2,0,1,1,1.95,2,2,2,0,0,1-1.95-2" transform="translate(-32.31 -89.89)"/><path class="cls-16" d="M459.47,137.38a2,2,0,1,1,1.95,2,2,2,0,0,1-1.95-2" transform="translate(-32.31 -89.89)"/><path class="cls-15" d="M482.69,121.13a2,2,0,1,1,2,2,2,2,0,0,1-2-2" transform="translate(-32.31 -89.89)"/><path class="cls-16" d="M482.69,121.13a2,2,0,1,1,2,2,2,2,0,0,1-2-2" transform="translate(-32.31 -89.89)"/><path class="cls-15" d="M505.92,123a2,2,0,1,1,1.95,2,2,2,0,0,1-1.95-2" transform="translate(-32.31 -89.89)"/><path class="cls-16" d="M505.92,123a2,2,0,1,1,1.95,2,2,2,0,0,1-1.95-2" transform="translate(-32.31 -89.89)"/><path class="cls-15" d="M529.14,123a2,2,0,1,1,2,2,2,2,0,0,1-2-2" transform="translate(-32.31 -89.89)"/><path class="cls-16" d="M529.14,123a2,2,0,1,1,2,2,2,2,0,0,1-2-2" transform="translate(-32.31 -89.89)"/><path class="cls-15" d="M552.37,133.67a2,2,0,1,1,2,2,2,2,0,0,1-2-2" transform="translate(-32.31 -89.89)"/><path class="cls-16" d="M552.37,133.67a2,2,0,1,1,2,2,2,2,0,0,1-2-2" transform="translate(-32.31 -89.89)"/><path class="cls-15" d="M575.59,139.24a2,2,0,1,1,2,1.95,2,2,0,0,1-2-1.95" transform="translate(-32.31 -89.89)"/><path class="cls-16" d="M575.59,139.24a2,2,0,1,1,2,1.95,2,2,0,0,1-2-1.95" transform="translate(-32.31 -89.89)"/><path class="cls-17" d="M64.66,131.81a2,2,0,1,1,2,1.95,2,2,0,0,1-2-1.95" transform="translate(-32.31 -89.89)"/><path class="cls-18" d="M64.66,131.81a2,2,0,1,1,2,1.95,2,2,0,0,1-2-1.95" transform="translate(-32.31 -89.89)"/><path class="cls-17" d="M87.88,128.09a2,2,0,1,1,2,2,2,2,0,0,1-2-2" transform="translate(-32.31 -89.89)"/><path class="cls-18" d="M87.88,128.09a2,2,0,1,1,2,2,2,2,0,0,1-2-2" transform="translate(-32.31 -89.89)"/><path class="cls-17" d="M111.11,116a2,2,0,1,1,2,2,2,2,0,0,1-2-2" transform="translate(-32.31 -89.89)"/><path class="cls-18" d="M111.11,116a2,2,0,1,1,2,2,2,2,0,0,1-2-2" transform="translate(-32.31 -89.89)"/><path class="cls-17" d="M134.33,151.78a2,2,0,1,1,1.95,2,2,2,0,0,1-1.95-2" transform="translate(-32.31 -89.89)"/><path class="cls-18" d="M134.33,151.78a2,2,0,1,1,1.95,2,2,2,0,0,1-1.95-2" transform="translate(-32.31 -89.89)"/><path class="cls-17" d="M157.55,154.57a2,2,0,1,1,2,2,2,2,0,0,1-2-2" transform="translate(-32.31 -89.89)"/><path class="cls-18" d="M157.55,154.57a2,2,0,1,1,2,2,2,2,0,0,1-2-2" transform="translate(-32.31 -89.89)"/><path class="cls-17" d="M180.78,123.91a2,2,0,1,1,1.95,2,2,2,0,0,1-1.95-2" transform="translate(-32.31 -89.89)"/><path class="cls-18" d="M180.78,123.91a2,2,0,1,1,1.95,2,2,2,0,0,1-1.95-2" transform="translate(-32.31 -89.89)"/><path class="cls-17" d="M204,156.89a2,2,0,1,1,2,2,2,2,0,0,1-2-2" transform="translate(-32.31 -89.89)"/><path class="cls-18" d="M204,156.89a2,2,0,1,1,2,2,2,2,0,0,1-2-2" transform="translate(-32.31 -89.89)"/><path class="cls-17" d="M227.23,151.32a2,2,0,1,1,2,2,2,2,0,0,1-2-2" transform="translate(-32.31 -89.89)"/><path class="cls-18" d="M227.23,151.32a2,2,0,1,1,2,2,2,2,0,0,1-2-2" transform="translate(-32.31 -89.89)"/><path class="cls-17" d="M250.45,139.24a2,2,0,1,1,2,1.95,2,2,0,0,1-2-1.95" transform="translate(-32.31 -89.89)"/><path class="cls-18" d="M250.45,139.24a2,2,0,1,1,2,1.95,2,2,0,0,1-2-1.95" transform="translate(-32.31 -89.89)"/><path class="cls-17" d="M273.68,179.65a2,2,0,1,1,1.95,2,2,2,0,0,1-1.95-2" transform="translate(-32.31 -89.89)"/><path class="cls-18" d="M273.68,179.65a2,2,0,1,1,1.95,2,2,2,0,0,1-1.95-2" transform="translate(-32.31 -89.89)"/><path class="cls-17" d="M296.9,198.69a2,2,0,1,1,2,2,2,2,0,0,1-2-2" transform="translate(-32.31 -89.89)"/><path class="cls-18" d="M296.9,198.69a2,2,0,1,1,2,2,2,2,0,0,1-2-2" transform="translate(-32.31 -89.89)"/><path class="cls-17" d="M320.12,237.25a2,2,0,1,1,2,1.95,2,2,0,0,1-2-1.95" transform="translate(-32.31 -89.89)"/><path class="cls-18" d="M320.12,237.25a2,2,0,1,1,2,1.95,2,2,0,0,1-2-1.95" transform="translate(-32.31 -89.89)"/><path class="cls-17" d="M343.35,181a2,2,0,1,1,1.95,2,2,2,0,0,1-1.95-2" transform="translate(-32.31 -89.89)"/><path class="cls-18" d="M343.35,181a2,2,0,1,1,1.95,2,2,2,0,0,1-1.95-2" transform="translate(-32.31 -89.89)"/><path class="cls-17" d="M366.57,164.79a2,2,0,1,1,2,2,2,2,0,0,1-2-2" transform="translate(-32.31 -89.89)"/><path class="cls-18" d="M366.57,164.79a2,2,0,1,1,2,2,2,2,0,0,1-2-2" transform="translate(-32.31 -89.89)"/><path class="cls-17" d="M389.8,156.43a2,2,0,1,1,1.95,1.95,2,2,0,0,1-1.95-1.95" transform="translate(-32.31 -89.89)"/><path class="cls-18" d="M389.8,156.43a2,2,0,1,1,1.95,1.95,2,2,0,0,1-1.95-1.95" transform="translate(-32.31 -89.89)"/><path class="cls-17" d="M413,142.49a2,2,0,1,1,2,2,2,2,0,0,1-2-2" transform="translate(-32.31 -89.89)"/><path class="cls-18" d="M413,142.49a2,2,0,1,1,2,2,2,2,0,0,1-2-2" transform="translate(-32.31 -89.89)"/><path class="cls-17" d="M436.25,155a2,2,0,1,1,1.95,2,2,2,0,0,1-1.95-2" transform="translate(-32.31 -89.89)"/><path class="cls-18" d="M436.25,155a2,2,0,1,1,1.95,2,2,2,0,0,1-1.95-2" transform="translate(-32.31 -89.89)"/><path class="cls-17" d="M459.47,159.21a2,2,0,1,1,1.95,2,2,2,0,0,1-1.95-2" transform="translate(-32.31 -89.89)"/><path class="cls-18" d="M459.47,159.21a2,2,0,1,1,1.95,2,2,2,0,0,1-1.95-2" transform="translate(-32.31 -89.89)"/><path class="cls-17" d="M482.69,134.13a2,2,0,1,1,2,2,2,2,0,0,1-2-2" transform="translate(-32.31 -89.89)"/><path class="cls-18" d="M482.69,134.13a2,2,0,1,1,2,2,2,2,0,0,1-2-2" transform="translate(-32.31 -89.89)"/><path class="cls-17" d="M505.92,158.28a2,2,0,1,1,1.95,2,2,2,0,0,1-1.95-2" transform="translate(-32.31 -89.89)"/><path class="cls-18" d="M505.92,158.28a2,2,0,1,1,1.95,2,2,2,0,0,1-1.95-2" transform="translate(-32.31 -89.89)"/><path class="cls-18" d="M529.14,162.46a2,2,0,1,1,2,2,2,2,0,0,1-2-2" transform="translate(-32.31 -89.89)"/><path class="cls-17" d="M552.37,146.67a2,2,0,1,1,2,2,2,2,0,0,1-2-2" transform="translate(-32.31 -89.89)"/><path class="cls-18" d="M552.37,146.67a2,2,0,1,1,2,2,2,2,0,0,1-2-2" transform="translate(-32.31 -89.89)"/><path class="cls-17" d="M575.59,147.14a2,2,0,1,1,2,2,2,2,0,0,1-2-2" transform="translate(-32.31 -89.89)"/><path class="cls-18" d="M575.59,147.14a2,2,0,1,1,2,2,2,2,0,0,1-2-2" transform="translate(-32.31 -89.89)"/><path class="cls-17" d="M529.14,162.46a2,2,0,1,1,2,2,2,2,0,0,1-2-2" transform="translate(-32.31 -89.89)"/></g><text class="cls-19" transform="translate(0 53.92)">−</text><text class="cls-20" transform="translate(5.26 53.92)">0.5</text><text class="cls-19" transform="translate(0 77.15)">−</text><text class="cls-20" transform="translate(5.26 77.15)">1.0</text><text class="cls-19" transform="translate(0 100.37)">−</text><text class="cls-20" transform="translate(5.26 100.37)">1.5</text><text class="cls-19" transform="translate(0 123.6)">−</text><text class="cls-20" transform="translate(5.26 123.6)">2.0</text><text class="cls-19" transform="translate(0 146.82)">−</text><text class="cls-20" transform="translate(5.26 146.82)">2.5 </text><text class="cls-20" transform="translate(5.24 30.7)">0.0</text><text class="cls-20" transform="translate(5.24 7.48)">0.5</text><line class="cls-21" x1="19.95" y1="143.64" x2="22.69" y2="143.64"/><line class="cls-21" x1="19.95" y1="120.42" x2="22.69" y2="120.42"/><line class="cls-21" x1="19.95" y1="97.19" x2="22.69" y2="97.19"/><line class="cls-21" x1="19.95" y1="73.97" x2="22.69" y2="73.97"/><line class="cls-21" x1="19.95" y1="50.74" x2="22.69" y2="50.74"/><line class="cls-21" x1="19.95" y1="27.52" x2="22.69" y2="27.52"/><line class="cls-21" x1="19.95" y1="4.3" x2="22.69" y2="4.3"/><line class="cls-21" x1="23.5" y1="182.61" x2="23.5" y2="154.37"/><line class="cls-21" x1="92.36" y1="182.61" x2="92.36" y2="154.37"/><line class="cls-21" x1="162.03" y1="182.61" x2="162.03" y2="154.37"/><line class="cls-21" x1="231.71" y1="182.61" x2="231.71" y2="154.37"/><line class="cls-21" x1="301.38" y1="182.61" x2="301.38" y2="154.37"/><line class="cls-21" x1="371.05" y1="182.61" x2="371.05" y2="154.37"/><line class="cls-21" x1="440.72" y1="182.61" x2="440.72" y2="154.37"/><line class="cls-21" x1="510.4" y1="182.61" x2="510.4" y2="154.37"/><line class="cls-21" x1="45.92" y1="165.09" x2="45.92" y2="154.37"/><line class="cls-21" x1="69.15" y1="165.09" x2="69.15" y2="154.37"/><line class="cls-21" x1="115.59" y1="165.09" x2="115.59" y2="154.37"/><line class="cls-21" x1="138.82" y1="165.09" x2="138.82" y2="154.37"/><line class="cls-21" x1="185.27" y1="165.09" x2="185.27" y2="154.37"/><line class="cls-21" x1="208.49" y1="165.09" x2="208.49" y2="154.37"/><line class="cls-21" x1="254.93" y1="165.09" x2="254.93" y2="154.37"/><line class="cls-21" x1="278.15" y1="165.09" x2="278.15" y2="154.37"/><line class="cls-21" x1="324.6" y1="165.09" x2="324.6" y2="154.37"/><line class="cls-21" x1="347.83" y1="165.09" x2="347.83" y2="154.37"/><line class="cls-21" x1="394.28" y1="165.09" x2="394.28" y2="154.37"/><line class="cls-21" x1="417.5" y1="165.09" x2="417.5" y2="154.37"/><line class="cls-21" x1="463.95" y1="165.09" x2="463.95" y2="154.37"/><line class="cls-21" x1="487.17" y1="165.09" x2="487.17" y2="154.37"/><line class="cls-21" x1="533.62" y1="165.09" x2="533.62" y2="154.37"/><line class="cls-21" x1="556.85" y1="165.09" x2="556.85" y2="154.37"/><text class="cls-20" transform="translate(28.67 163.8)">3.4</text><text class="cls-20" transform="translate(51.9 163.8)">4.4</text><text class="cls-20" transform="translate(75.13 163.8)">5.4</text><text class="cls-20" transform="translate(98.35 163.8)">3.4</text><text class="cls-20" transform="translate(121.57 163.8)">4.4</text><text class="cls-20" transform="translate(144.8 163.8)">5.4</text><text class="cls-20" transform="translate(168.02 163.8)">3.4</text><text class="cls-20" transform="translate(191.24 163.8)">4.4</text><text class="cls-20" transform="translate(214.47 163.8)">5.4</text><text class="cls-20" transform="translate(237.7 163.8)">4.4</text><text class="cls-20" transform="translate(260.92 163.8)">5.4</text><text class="cls-20" transform="translate(284.15 163.8)">6.4</text><text class="cls-20" transform="translate(307.37 163.8)">4.4</text><text class="cls-20" transform="translate(330.59 163.8)">5.4</text><text class="cls-20" transform="translate(353.82 163.8)">6.4</text><text class="cls-20" transform="translate(377.05 163.8)">4.4</text><text class="cls-20" transform="translate(400.27 163.8)">5.4</text><text class="cls-20" transform="translate(423.5 163.8)">6.4</text><text class="cls-20" transform="translate(446.71 163.18)">4.4</text><text class="cls-20" transform="translate(469.94 163.18)">5.4</text><text class="cls-20" transform="translate(493.17 163.18)">6.4</text><text class="cls-20" transform="translate(516.39 163.18)">8.4</text><text class="cls-20" transform="translate(539.62 163.18)">8.4</text><text class="cls-22" transform="translate(280.59 198.84)">age</text><rect class="cls-23" x="581.74" y="28.81" width="100.47" height="96.81"/><rect class="cls-24" x="587.22" y="51.02" width="17.28" height="17.28"/><rect class="cls-25" x="587.22" y="51.02" width="17.28" height="17.28"/><line class="cls-7" x1="588.95" y1="59.66" x2="602.77" y2="59.66"/><path class="cls-13" d="M626.22,149.55a2,2,0,1,1,1.95,2,2,2,0,0,1-1.95-2" transform="translate(-32.31 -89.89)"/><path class="cls-14" d="M626.22,149.55a2,2,0,1,1,1.95,2,2,2,0,0,1-1.95-2" transform="translate(-32.31 -89.89)"/><rect class="cls-24" x="587.22" y="68.3" width="17.28" height="17.28"/><rect class="cls-25" x="587.22" y="68.3" width="17.28" height="17.28"/><line class="cls-8" x1="588.95" y1="76.94" x2="602.77" y2="76.94"/><path class="cls-17" d="M626.22,166.83a2,2,0,1,1,1.95,2,2,2,0,0,1-1.95-2" transform="translate(-32.31 -89.89)"/><path class="cls-18" d="M626.22,166.83a2,2,0,1,1,1.95,2,2,2,0,0,1-1.95-2" transform="translate(-32.31 -89.89)"/><rect class="cls-24" x="587.22" y="85.58" width="17.28" height="17.28"/><rect class="cls-25" x="587.22" y="85.58" width="17.28" height="17.28"/><line class="cls-9" x1="588.95" y1="94.22" x2="602.77" y2="94.22"/><path class="cls-15" d="M626.22,184.11a2,2,0,1,1,1.95,2,2,2,0,0,1-1.95-2" transform="translate(-32.31 -89.89)"/><path class="cls-16" d="M626.22,184.11a2,2,0,1,1,1.95,2,2,2,0,0,1-1.95-2" transform="translate(-32.31 -89.89)"/><rect class="cls-24" x="587.22" y="102.86" width="17.28" height="17.28"/><rect class="cls-25" x="587.22" y="102.86" width="17.28" height="17.28"/><line class="cls-10" x1="588.95" y1="111.5" x2="602.77" y2="111.5"/><path class="cls-11" d="M626.22,201.39a2,2,0,1,1,1.95,2,2,2,0,0,1-1.95-2" transform="translate(-32.31 -89.89)"/><path class="cls-12" d="M626.22,201.39a2,2,0,1,1,1.95,2,2,2,0,0,1-1.95-2" transform="translate(-32.31 -89.89)"/><text class="cls-26" transform="translate(609.98 62.85)">catch−up </text><text class="cls-26" transform="translate(609.98 80.13)">Language−delay </text><text class="cls-26" transform="translate(609.98 97.41)">LRC−delay </text><text class="cls-26" transform="translate(609.98 114.69)">T</text><text class="cls-26" transform="translate(614.4 114.69)">ypical</text><text class="cls-22" transform="translate(49.95 179.59)">C<tspan class="cls-27" x="7.34" y="0">A</tspan></text><text class="cls-22" transform="translate(120.17 179.59)">GS</text><text class="cls-22" transform="translate(189.26 179.59)">NR</text><text class="cls-22" transform="translate(259.51 179.59)">SD</text><text class="cls-22" transform="translate(327.66 179.59)">MC</text><text class="cls-22" transform="translate(398.25 179.59)">RN</text><text class="cls-22" transform="translate(467.62 179.59)">VD</text><text class="cls-22" transform="translate(514.63 179.59)">CR</text><text class="cls-22" transform="translate(538.52 179.59)">RF</text></svg>